<?xml version="1.0" ?><!-- Uploaded to: SVG Repo, www.svgrepo.com, Generator: SVG Repo Mixer Tools -->
<svg fill="#000000" width="800px" height="800px" viewBox="0 0 52 52" data-name="Layer 1" id="Layer_1" xmlns="http://www.w3.org/2000/svg"><path d="M50,52H2a2,2,0,0,1-2-2V2A2,2,0,0,1,2,0H50a2,2,0,0,1,2,2V50A2,2,0,0,1,50,52ZM4,48H48V4H4Z"/><path d="M50,13.6H2a2,2,0,0,1,0-4H50a2,2,0,0,1,0,4Z"/><path d="M50,23.2H2a2,2,0,0,1,0-4H50a2,2,0,0,1,0,4Z"/><path d="M50,32.8H2a2,2,0,1,1,0-4H50a2,2,0,1,1,0,4Z"/><path d="M50,42.4H2a2,2,0,0,1,0-4H50a2,2,0,0,1,0,4Z"/><path d="M26,52a2,2,0,0,1-2-2V2a2,2,0,0,1,4,0V50A2,2,0,0,1,26,52Z"/></svg>